<?xml version="1.0" encoding="UTF-8"?>
<!DOCTYPE svg PUBLIC "-//W3C//DTD SVG 1.1//EN" "http://www.w3.org/Graphics/SVG/1.1/DTD/svg11.dtd">
<svg xmlns="http://www.w3.org/2000/svg" xmlns:xlink="http://www.w3.org/1999/xlink" version="1.1" width="41px" height="30px" viewBox="-0.5 -0.5 41 30"><defs/><g><rect x="0" y="0" width="40" height="27.8" fill="none" stroke="none" pointer-events="all"/><ellipse cx="14" cy="13.8" rx="12" ry="12" fill="none" stroke="#000000" pointer-events="all"/><ellipse cx="26" cy="13.8" rx="12" ry="12" fill="none" stroke="#000000" pointer-events="all"/><rect x="15.2" y="15.6" width="9.4" height="0.4" rx="0.2" ry="0.2" fill="#000000" stroke="none" pointer-events="all"/><rect x="16" y="17.6" width="8" height="0.4" rx="0.2" ry="0.2" fill="#000000" stroke="none" pointer-events="all"/><rect x="17.2" y="19.6" width="5.4" height="0.4" rx="0.2" ry="0.2" fill="#000000" stroke="none" pointer-events="all"/><rect x="18.4" y="21.6" width="3.2" height="0.4" rx="0.2" ry="0.2" fill="#000000" stroke="none" pointer-events="all"/><rect x="15" y="13.6" width="10" height="0.4" rx="0.2" ry="0.2" fill="#000000" stroke="none" pointer-events="all"/><rect x="15.2" y="11.6" width="9.4" height="0.4" rx="0.2" ry="0.2" fill="#000000" stroke="none" pointer-events="all"/><rect x="16" y="9.6" width="8" height="0.4" rx="0.2" ry="0.2" fill="#000000" stroke="none" pointer-events="all"/><rect x="17.2" y="7.6" width="5.4" height="0.4" rx="0.2" ry="0.2" fill="#000000" stroke="none" pointer-events="all"/><rect x="18.4" y="5.6" width="3.2" height="0.4" rx="0.2" ry="0.2" fill="#000000" stroke="none" pointer-events="all"/></g></svg>