<?xml version="1.0" encoding="UTF-8"?>
<!DOCTYPE svg PUBLIC "-//W3C//DTD SVG 1.1//EN" "http://www.w3.org/Graphics/SVG/1.1/DTD/svg11.dtd">
<svg xmlns="http://www.w3.org/2000/svg" xmlns:xlink="http://www.w3.org/1999/xlink" version="1.1" width="41px" height="28px" viewBox="-0.5 -0.5 41 28"><defs/><g><rect x="0" y="0.1" width="40" height="27.8" fill="none" stroke="none" pointer-events="all"/><ellipse cx="14" cy="14" rx="12" ry="12" fill="none" stroke="#000000" pointer-events="all"/><ellipse cx="26" cy="14" rx="12" ry="12" fill="none" stroke="#000000" pointer-events="all"/><rect x="6.8" y="6" width="8" height="0.4" rx="0.2" ry="0.2" fill="#000000" stroke="none" pointer-events="all"/><rect x="5.6" y="7.8" width="8" height="0.4" rx="0.2" ry="0.2" fill="#000000" stroke="none" pointer-events="all"/><rect x="4.8" y="9.8" width="8" height="0.4" rx="0.2" ry="0.2" fill="#000000" stroke="none" pointer-events="all"/><rect x="4.2" y="11.8" width="8" height="0.4" rx="0.2" ry="0.2" fill="#000000" stroke="none" pointer-events="all"/><rect x="4" y="13.8" width="8" height="0.4" rx="0.2" ry="0.2" fill="#000000" stroke="none" pointer-events="all"/><rect x="4.2" y="15.8" width="8" height="0.4" rx="0.2" ry="0.2" fill="#000000" stroke="none" pointer-events="all"/><rect x="4.8" y="17.8" width="8" height="0.4" rx="0.2" ry="0.2" fill="#000000" stroke="none" pointer-events="all"/><rect x="5.8" y="19.8" width="8" height="0.4" rx="0.2" ry="0.2" fill="#000000" stroke="none" pointer-events="all"/><rect x="7.2" y="21.8" width="8" height="0.4" rx="0.2" ry="0.2" fill="#000000" stroke="none" pointer-events="all"/><rect x="9.6" y="23.8" width="8" height="0.4" rx="0.2" ry="0.2" fill="#000000" stroke="none" pointer-events="all"/><rect x="9.2" y="4" width="8" height="0.4" rx="0.2" ry="0.2" fill="#000000" stroke="none" pointer-events="all"/></g></svg>